<?xml version="1.0" encoding="utf-8"?>
<!-- Generator: Adobe Illustrator 23.0.3, SVG Export Plug-In . SVG Version: 6.00 Build 0)  -->
<svg version="1.1" id="Layer_1" xmlns="http://www.w3.org/2000/svg" xmlns:xlink="http://www.w3.org/1999/xlink" x="0px" y="0px"
	 viewBox="0 0 172 29" style="enable-background:new 0 0 172 29;" xml:space="preserve">
<style type="text/css">
	.st0{fill:#FFFFFF;}
</style>
<g>
	<path class="st0" d="M8.5,10.2L8.3,10C8.1,9.6,8,9.4,8,9.2c0-0.3,0.2-0.6,0.5-0.9c0.4-0.3,0.7-0.4,1-0.4c0.1,0,0.3,0,0.5,0
		c0.2,0,0.3,0,0.4,0c2.1-0.3,3.6-0.5,4.4-0.5c1.6,0,2.9,0.4,3.8,1.1c0.9,0.8,1.4,1.7,1.4,2.8c0,1.1-0.5,2.1-1.4,3s-2.1,1.7-3.7,2.3
		c2.5,2.1,4.5,3.5,5.8,4.3c0.5,0.3,0.7,0.6,0.7,1.1c0,0.3-0.2,0.6-0.5,0.9c-0.3,0.3-0.6,0.4-0.9,0.4c-0.4,0-0.9-0.2-1.4-0.5
		c-0.5-0.4-1.3-0.9-2.2-1.7c-1-0.8-1.5-1.2-1.7-1.4c-1.4-1.1-2.3-1.9-2.9-2.3c-0.8,0-1.1-0.4-1.1-1.1c0-0.4,0.2-0.7,0.5-0.9
		c0.3-0.3,0.7-0.4,1.1-0.4c0.1,0,0.3,0,0.4,0.1c0.1,0,0.2,0.1,0.3,0.1c0.5,0,1.3-0.4,2.5-1.1c1.2-0.8,1.9-1.7,1.9-2.7
		c0-0.5-0.3-0.9-0.8-1.3c-0.5-0.4-1.2-0.5-2-0.5c-1,0-1.7,0.1-2.3,0.2c-0.6,0.1-0.9,0.2-1,0.2c-0.1,0-0.1,0.2-0.2,0.3
		s-0.2,0.9-0.5,2.2c-0.2,1.3-0.5,2.7-0.7,4.3c-0.2,1.5-0.3,2.7-0.3,3.4c0,0.5,0,0.9,0.1,1.3c0.1,0.4,0.1,0.7,0.1,1
		c0,0.3-0.2,0.5-0.5,0.8c-0.3,0.3-0.6,0.4-1,0.4c-1,0-1.5-0.7-1.5-2.1C7,20.5,7.1,19,7.3,17s0.5-3.8,0.9-5.3c0-0.2,0.1-0.5,0.1-0.7
		L8.5,10.2z"/>
	<path class="st0" d="M23.5,16L23.5,16c0.2-1.3,0.3-2,0.3-2.2c0-0.5,0.1-1,0.3-1.3c0.2-0.4,0.6-0.5,1-0.5c0.5,0,0.9,0.1,1.1,0.3
		c0.3,0.2,0.4,0.5,0.4,0.8s-0.1,0.9-0.4,1.8l-0.1,0.2c-0.4,1.4-0.6,2.5-0.7,3.4c-0.1,0.9-0.1,1.6-0.1,2.1c0,0.4,0.1,1,0.2,1.8
		c0,0.1,0,0.2,0,0.3c0,0.2-0.2,0.4-0.5,0.7s-0.6,0.4-1,0.4c-0.9,0-1.4-0.7-1.4-2.1c0-1.2,0.2-2.7,0.5-4.4
		C23.3,16.7,23.4,16.4,23.5,16z M28.7,7.2c0,0.5-0.2,1-0.7,1.3c-0.5,0.4-0.9,0.6-1.2,0.6c-0.4,0-0.8-0.2-1.1-0.5s-0.5-0.7-0.5-1.1
		c0-0.5,0.2-0.9,0.5-1.3C26,5.9,26.4,5.8,27,5.8c0.5,0,0.9,0.1,1.2,0.4C28.5,6.5,28.7,6.8,28.7,7.2z"/>
	<path class="st0" d="M36.6,19.6c-1.9,2.6-3.7,3.9-5.6,3.9c-0.8,0-1.4-0.3-1.8-0.9c-0.5-0.6-0.7-1.4-0.7-2.3c0-1.9,0.8-3.7,2.3-5.6
		c1.5-1.8,3.1-2.8,4.6-2.8c0.9,0,1.5,0.2,1.9,0.7c0.5-2.3,0.9-3.8,1-4.4c0.2-1.1,0.4-1.8,0.5-2.2c0.1-0.4,0.4-0.6,0.7-0.8
		C39.8,5.1,40,5,40.3,5c0.4,0,0.6,0.2,0.8,0.5s0.3,0.7,0.3,1.1c0,0.2-0.2,0.8-0.5,1.7c-0.5,1.5-1,3.4-1.4,5.6s-0.7,3.9-0.7,5.2
		c0,1.2,0.3,1.9,0.8,1.9c0.3,0,0.6-0.1,0.9-0.2c0.3-0.1,0.5-0.2,0.7-0.2c0.4,0,0.5,0.2,0.5,0.6c0,0.5-0.4,1-1.1,1.5
		c-0.7,0.5-1.4,0.7-2,0.7c-0.7,0-1.2-0.4-1.6-1.1C36.7,21.6,36.5,20.7,36.6,19.6z M35.4,14.1c-0.9,0-1.9,0.7-2.9,2.1S31,19,31,20.2
		c0,0.7,0.3,1,0.8,1c0.9,0,1.9-0.8,3.1-2.3c1.2-1.6,1.8-2.8,1.8-3.7c0-0.3-0.1-0.5-0.3-0.8C36.1,14.2,35.8,14.1,35.4,14.1z"/>
	<path class="st0" d="M52.2,16.4c-0.1,0.1-0.6,1.2-1.6,3.4c-0.1,0.2-0.1,0.3-0.2,0.3c-1.2,2.5-2.2,3.7-2.8,3.7c-1,0-1.9-1.3-2.7-3.8
		c-0.8-2.6-1.2-4.7-1.2-6.4c0-0.6,0.1-1.1,0.4-1.5s0.7-0.6,1.2-0.6c0.3,0,0.6,0.1,0.9,0.4c0.3,0.3,0.4,0.6,0.4,0.8l-0.1,1.4
		c0,0.4,0,0.9,0,1.3c0,0.8,0.2,1.8,0.5,3c0.3,1.3,0.5,1.9,0.7,1.9c0.1,0,0.5-0.6,1.1-1.9c0.8-1.7,1.5-2.9,2-3.8h0
		c0.7-1.4,1.3-2.3,1.9-2.7c0.5,0,0.8,0.2,1.1,0.4c0.3,0.2,0.4,0.5,0.4,0.8c0,0.2,0,0.4,0,0.5c0,0.1,0,0.2,0,0.3
		c0,2.2,0.6,4.1,1.8,5.8c0.1,0.1,0.1,0,0.2-0.1c0.1-0.2,0.2-0.7,0.4-1.6c0.4-1.6,0.9-3.1,1.5-4.3c0.6-1.2,1-2,1.4-2.3
		c0.4-0.3,0.7-0.4,1.2-0.4c0.3,0,0.5,0.1,0.7,0.3c0.2,0.2,0.3,0.4,0.3,0.7c0,0.3-0.1,0.5-0.2,0.7c-0.9,1.2-1.7,2.9-2.5,5.1
		c-0.7,2.3-1.3,3.6-1.5,4.1c-0.3,0.5-0.5,0.8-0.7,0.8c-0.7,0-1.2-0.1-1.6-0.4c-0.4-0.2-0.8-0.7-1.2-1.4s-0.8-1.5-1.1-2.5
		S52.3,16.9,52.2,16.4z"/>
	<path class="st0" d="M70.2,19.6c-1.9,2.5-3.7,3.7-5.5,3.7c-0.6,0-1.2-0.3-1.7-0.8c-0.5-0.5-0.7-1.2-0.7-1.9c0-1.9,0.8-3.9,2.5-6.1
		c1.7-2.1,3.4-3.2,5.1-3.2c0.9,0,1.4,0.4,1.7,1.3c0.8,0,1.2,0.3,1.2,0.9c0,0.3-0.1,0.8-0.2,1.6c-0.3,1.5-0.4,2.7-0.4,3.5
		c0,0.9,0.1,1.6,0.2,1.9c0.1,0.4,0.2,0.6,0.3,0.7c0.1,0.1,0.2,0.2,0.5,0.4c0.3,0.1,0.4,0.3,0.4,0.6c0,0.4-0.2,0.7-0.6,0.9
		c-0.4,0.2-0.8,0.4-1.2,0.4C70.7,23.6,70.1,22.3,70.2,19.6z M69.6,13.6c-0.7,0-1.7,0.8-2.8,2.4c-1.2,1.6-1.7,3-1.7,4.1
		c0,0.6,0.1,0.9,0.4,0.9c0.8,0,1.9-0.8,3.1-2.3c1.2-1.5,1.9-2.8,1.9-3.9c0-0.4-0.1-0.6-0.2-0.9C70,13.7,69.8,13.6,69.6,13.6z"/>
	<path class="st0" d="M84.8,21.6C84.4,21,84.2,19.8,84,18c-0.2-1.8-0.5-2.8-1.1-2.8c-0.5,0-1.4,1-2.7,2.9c-1.3,1.9-2,3.3-2.3,4.2
		c-0.1,0.3-0.2,0.5-0.4,0.7c-0.2,0.2-0.3,0.3-0.5,0.3c-1.1,0-1.6-0.5-1.6-1.5c0-0.3,0.1-1.1,0.3-2.3c0.3-1.5,0.4-3.4,0.4-5.7
		c0-0.3,0.1-0.7,0.4-1.1c0.3-0.4,0.6-0.6,0.9-0.6c0.4,0,0.7,0.1,1,0.3c0.2,0.2,0.3,0.8,0.3,1.7c0,0.7-0.2,2-0.6,4
		c1.6-3.6,3.3-5.5,5.2-5.5c1.7,0,2.6,1.3,2.9,3.9c0.3,2.7,0.6,4,1,4c0.2,0,0.4,0,0.6-0.1c0.3-0.1,0.5-0.1,0.6-0.1
		c0.3,0,0.5,0.2,0.5,0.6c0,0.4-0.2,0.8-0.7,1.2c-0.5,0.4-1.1,0.6-1.8,0.6C85.7,22.7,85.1,22.3,84.8,21.6L84.8,21.6z"/>
	<path class="st0" d="M111.6,9.8l-3.3,0.2c-1.2,0.1-2.1,0.2-3,0.3c-0.8,0.1-1.3,0.2-1.3,0.3c-0.1,0.1-0.1,0.3-0.1,0.7
		c0,0.4-0.2,1-0.4,1.9c-0.2,0.7-0.3,1.3-0.3,1.7c0.5,0,1.1,0,2-0.1s1.5-0.2,1.8-0.3c1-0.3,1.8-0.4,2.4-0.4c1.1,0,1.7,0.3,1.7,1
		c0,0.5-0.2,0.8-0.5,1c-0.3,0.2-0.8,0.3-1.5,0.4c-0.4,0-0.9,0.1-1.4,0.2c-0.3,0-0.6,0.1-1,0.1c-2,0.2-3.2,0.4-3.5,0.5h0
		c-0.1,0-0.2,0.1-0.3,0.2c-0.1,0.1-0.2,0.7-0.3,1.6c-0.2,0.9-0.2,1.6-0.2,2c0,0.3,0.2,0.4,0.5,0.4c0.3,0,1.2-0.1,2.7-0.3
		c1.5-0.2,2.4-0.3,2.7-0.4c1-0.2,1.6-0.3,1.9-0.3c0.9,0.1,1.4,0.6,1.4,1.3c0,0.3-0.1,0.6-0.3,0.8c-0.7,0.3-1.7,0.5-3,0.6
		c-1,0.1-2.2,0.2-3.6,0.4c-1.2,0.3-2.4,0.4-3.5,0.4c-0.6,0-1-0.1-1.3-0.4c-0.3-0.2-0.4-0.6-0.5-1.2l0-0.4c0-0.1,0.1-0.3,0.2-0.7
		c0.3-0.9,0.6-2.8,1.1-5.9s0.6-4.7,0.6-5.1c0,0,0,0-0.1-0.1c0,0-0.1-0.2-0.3-0.4c-0.1-0.2-0.2-0.5-0.2-0.7c0-0.1,0-0.2,0-0.3
		c0-0.2,0.2-0.3,0.5-0.5s0.5-0.2,0.8-0.2c0.3,0,0.7,0,1,0.1c0.6,0,2.5-0.2,5.8-0.6c1.1-0.1,1.7-0.2,1.7-0.2l0.2,0
		c1.3-0.1,1.9,0.3,1.9,1.2c0,0.2-0.1,0.4-0.3,0.6C112,9.6,111.8,9.8,111.6,9.8z"/>
	<path class="st0" d="M118,5c0.8,0,1.2,0.4,1.2,1.3c0,0.4-0.1,0.8-0.2,1.3c-0.1,0.4-0.4,1.6-0.9,3.3c-0.4,1.3-0.6,2.7-0.8,4.2
		c-0.2,1.5-0.3,2.7-0.3,3.6c0,0.9,0.1,2,0.2,3.2c0,0.3,0.1,0.5,0.1,0.6c0,0.4-0.2,0.8-0.5,1.1s-0.7,0.5-1,0.5
		c-0.5,0-0.9-0.2-1.1-0.7s-0.3-1.3-0.3-2.5c0-2.5,0.3-5.5,0.9-8.9c0.6-3.4,1.1-5.4,1.5-6C117.1,5.3,117.6,5,118,5z"/>
	<path class="st0" d="M127.7,19.6c-1.9,2.5-3.7,3.7-5.5,3.7c-0.6,0-1.2-0.3-1.7-0.8s-0.7-1.2-0.7-1.9c0-1.9,0.8-3.9,2.5-6.1
		c1.7-2.1,3.4-3.2,5.1-3.2c0.9,0,1.4,0.4,1.7,1.3c0.8,0,1.2,0.3,1.2,0.9c0,0.3-0.1,0.8-0.2,1.6c-0.3,1.5-0.4,2.7-0.4,3.5
		c0,0.9,0.1,1.6,0.2,1.9c0.1,0.4,0.2,0.6,0.3,0.7s0.2,0.2,0.5,0.4c0.3,0.1,0.4,0.3,0.4,0.6c0,0.4-0.2,0.7-0.6,0.9
		c-0.4,0.2-0.8,0.4-1.2,0.4C128.2,23.6,127.6,22.3,127.7,19.6z M127.1,13.6c-0.7,0-1.7,0.8-2.8,2.4c-1.2,1.6-1.7,3-1.7,4.1
		c0,0.6,0.1,0.9,0.4,0.9c0.8,0,1.9-0.8,3.1-2.3c1.2-1.5,1.9-2.8,1.9-3.9c0-0.4-0.1-0.6-0.2-0.9C127.4,13.7,127.3,13.6,127.1,13.6z"
		/>
	<path class="st0" d="M135.6,18.2c1.2-2.2,2.2-3.7,3.1-4.5c0.9-0.8,1.7-1.2,2.6-1.2c0.6,0,1.1,0.2,1.5,0.6c0.4,0.4,0.7,1.5,0.9,3.3
		c0.1,0.8,0.2,1.5,0.3,2s0.3,1,0.4,1.4c0.2,0.4,0.4,0.8,0.6,1.1c0.2,0.3,0.3,0.5,0.3,0.8s-0.1,0.5-0.4,0.7c-0.2,0.2-0.5,0.3-0.9,0.3
		c-0.6,0-1.2-0.3-1.7-1s-0.8-1.7-0.9-2.9c-0.1-1.5-0.2-2.5-0.4-2.9c-0.1-0.4-0.4-0.6-0.7-0.6c-0.4,0-1.2,0.8-2.4,2.5
		c-1.2,1.7-2.1,3-2.6,4c-0.3,0.8-0.6,1.2-0.8,1.5s-0.4,0.3-0.7,0.3c-0.4,0-0.8-0.1-1.1-0.3s-0.4-0.5-0.4-0.9c0-0.2,0.1-0.8,0.3-1.8
		c0.7-3.8,1.3-7.9,1.8-12.3c0.1-1,0.3-1.8,0.7-2.2c0.3-0.4,0.6-0.6,0.9-0.6c0.4,0,0.7,0.1,1,0.4s0.4,0.7,0.4,1.2
		c0,0.8-0.1,1.7-0.3,2.8s-0.6,2.7-1.1,5C136,16.3,135.8,17.4,135.6,18.2z"/>
	<path class="st0" d="M156.6,19.5c0,0.7-0.6,1.6-1.9,2.7c-1.3,1-2.7,1.6-4.2,1.6c-1.2,0-2.2-0.4-2.9-1.1c-0.7-0.8-1-1.8-1-3.2
		c0-2,0.7-3.9,2.1-5.6s2.9-2.6,4.5-2.6c0.8,0,1.4,0.3,1.9,0.8s0.7,1.1,0.7,1.8c0,1.2-0.6,2.4-1.8,3.6c-1.2,1.1-2.7,1.9-4.6,2.3
		c-0.2,0-0.3,0.2-0.3,0.4c0,0.3,0.2,0.7,0.5,1c0.3,0.3,0.7,0.5,1.2,0.5c1.4,0,2.9-0.7,4.3-2.2c0.3-0.3,0.5-0.4,0.8-0.4
		C156.3,18.8,156.6,19,156.6,19.5z M149.3,17.6c1.1-0.2,2.1-0.7,3-1.5c0.9-0.7,1.3-1.4,1.3-2c0-0.2-0.1-0.4-0.2-0.6
		c-0.1-0.2-0.3-0.2-0.5-0.2c-0.6,0-1.3,0.5-2.1,1.4S149.6,16.5,149.3,17.6z"/>
	<path class="st0" d="M167.9,19.5c0,0.7-0.6,1.6-1.9,2.7c-1.3,1-2.7,1.6-4.2,1.6c-1.2,0-2.2-0.4-2.9-1.1c-0.7-0.8-1-1.8-1-3.2
		c0-2,0.7-3.9,2.1-5.6s2.9-2.6,4.5-2.6c0.8,0,1.4,0.3,1.9,0.8s0.7,1.1,0.7,1.8c0,1.2-0.6,2.4-1.8,3.6c-1.2,1.1-2.7,1.9-4.6,2.3
		c-0.2,0-0.3,0.2-0.3,0.4c0,0.3,0.2,0.7,0.5,1c0.3,0.3,0.7,0.5,1.2,0.5c1.4,0,2.9-0.7,4.3-2.2c0.3-0.3,0.5-0.4,0.8-0.4
		C167.7,18.8,167.9,19,167.9,19.5z M160.7,17.6c1.1-0.2,2.1-0.7,3-1.5c0.9-0.7,1.3-1.4,1.3-2c0-0.2-0.1-0.4-0.2-0.6
		c-0.1-0.2-0.3-0.2-0.5-0.2c-0.6,0-1.3,0.5-2.1,1.4S161,16.5,160.7,17.6z"/>
</g>
</svg>
