<?xml version="1.0" encoding="utf-8"?>
<!-- Generator: Adobe Illustrator 23.0.3, SVG Export Plug-In . SVG Version: 6.00 Build 0)  -->
<svg version="1.1" id="Layer_1" xmlns="http://www.w3.org/2000/svg" xmlns:xlink="http://www.w3.org/1999/xlink" x="0px" y="0px"
	 viewBox="0 0 172 29" style="enable-background:new 0 0 172 29;" xml:space="preserve">
<style type="text/css">
	.st0{fill:#FFFFFF;}
</style>
<g>
	<path class="st0" d="M0.5,23c0-0.7,0.2-1,0.6-1c0.3,0,1,0.6,2.2,1.8c0.5,0.4,1,0.8,1.7,1.2c0.6,0.4,1.3,0.5,1.9,0.5
		c0.8,0,1.5-0.8,2.2-2.5c0.7-1.7,1.6-4.7,2.8-8.9c1.2-4.3,2.1-7,2.8-8.2c-1.1,0.2-2.5,0.5-4.5,0.9c-1.9,0.5-3,0.7-3.4,0.7
		c-0.9,0-1.3-0.3-1.3-0.9c0-0.8,1.5-1.6,4.5-2.5c3-0.8,5.2-1.3,6.6-1.3c0.4,0,0.8,0.1,1.1,0.3c0.3,0.2,0.5,0.5,0.5,0.9
		c0,0.4-0.2,1-0.5,2c-1.5,4.3-2.5,7.3-2.9,8.9c-1.6,5.7-2.7,9.4-3.6,11.1s-2,2.5-3.7,2.5c-1.6,0-3.2-0.7-4.7-2S0.5,24,0.5,23z"/>
	<path class="st0" d="M27,10.6c1.1,0,2.1,0.6,3,1.7c0.9,1.1,1.4,2.1,1.4,3c0,0.9-0.3,1.8-0.9,2.7c0.3,0.4,0.4,0.7,0.4,0.9
		c0,0.7-0.2,1.8-0.5,3.5c-0.3,1.6-0.5,2.7-0.5,3.2c0,0.5-0.1,0.9-0.1,1.2c0,0.3-0.1,0.6-0.2,0.9c-0.1,0.6-0.3,0.9-0.6,0.9
		c-0.4,0-0.8-0.4-1.1-1.1c-0.3-0.8-0.4-1.8-0.5-3c-2.1,2.7-4.1,4.1-5.9,4.1c-1.1,0-2.2-0.5-3.3-1.4c-1.1-1-1.6-1.9-1.6-3
		c0-1.4,0.5-3.2,1.6-5.3c1.1-2.1,2.4-4,4.1-5.7S25.5,10.6,27,10.6z M28.7,16.9c0-2.2-0.4-3.3-1.3-3.3c-0.9,0-2,0.7-3.3,2
		c-1.2,1.3-2.3,2.8-3.2,4.5s-1.3,3-1.3,4c0,0.4,0.2,0.7,0.5,1c0.3,0.2,0.7,0.4,1.2,0.4c1.1,0,2.4-0.8,3.8-2.3c1.4-1.5,2.4-3.4,3-5.6
		C28.1,17.2,28.3,17,28.7,16.9L28.7,16.9z"/>
	<path class="st0" d="M37.1,22.2c2.3-3.9,4.2-6.8,5.6-8.7c1.5-1.9,2.7-2.9,3.6-2.9c0.9,0,1.8,0.5,2.6,1.5c0.8,1,1.3,2,1.3,3.1
		c0,1.7-0.4,3.8-1.2,6.3c-1.4,4.6-2.7,6.9-3.9,6.9c-0.5,0-0.8-0.4-0.8-1.1c0-0.5,0.3-1.5,0.8-3.1c0.5-1.6,1-3.1,1.4-4.6
		c0.5-1.5,0.7-2.6,0.7-3.4c0-0.8-0.1-1.3-0.4-1.7c-0.2-0.4-0.4-0.5-0.7-0.5c-0.2,0-0.4,0.1-0.7,0.2c-0.2,0.1-0.5,0.4-0.8,0.7
		c-0.3,0.3-0.6,0.7-0.8,1c-0.3,0.3-0.6,0.8-1,1.4c-0.4,0.6-0.7,1.1-1,1.5c-0.3,0.4-0.6,1-1.2,1.8c-0.5,0.8-0.9,1.4-1.2,1.8
		c-0.3,0.4-0.6,1-1,1.7s-0.8,1.2-1,1.6c-0.2,0.4-0.5,0.8-0.8,1.3c-0.6,0.9-1.1,1.3-1.4,1.3c-0.3,0-0.7-0.3-1.2-0.8
		c-0.5-0.6-0.7-1-0.7-1.4c0-0.1,0.1-0.4,0.3-1c0.5-1.4,1-3.1,1.5-5.1c0.6-2.1,0.9-4.4,0.9-7c0.1-1.8,0.3-2.6,0.8-2.6
		c0.5,0,1.1,0.3,1.6,0.8s0.8,1.2,0.8,1.8c0,0.6-0.2,1.9-0.6,3.8C38.1,18.8,37.7,20.5,37.1,22.2z"/>
	<path class="st0" d="M66.4,16.6c0,1.3-0.7,2.3-2.1,3.1c-1.4,0.8-2.9,1.2-4.7,1.2c-1.7,0-3.3-0.2-4.7-0.6c-0.3,1.1-0.5,2-0.5,2.8
		c0,0.8,0.3,1.5,0.8,1.9c0.5,0.5,1.4,0.7,2.6,0.7c1.2,0,2.4-0.2,3.7-0.6c1.3-0.4,2-0.6,2.1-0.6c0.6,0,0.9,0.2,0.9,0.7
		c0,0.6-0.7,1.4-2.2,2.1c-1.5,0.7-2.9,1.1-4.3,1.1c-1.9,0-3.4-0.6-4.6-1.7c-1.2-1.1-1.8-2.5-1.8-4.2c0-1.7,0.5-3.5,1.4-5.3
		c0.9-1.9,2.1-3.4,3.5-4.7s2.9-1.9,4.3-1.9s2.7,0.7,3.9,2C65.9,13.9,66.4,15.3,66.4,16.6z M61,13.4c-0.9,0-1.8,0.5-2.8,1.4
		c-1,0.9-1.8,2.1-2.4,3.4c1,0.2,2.1,0.3,3.3,0.3s2.3-0.2,3.2-0.6c0.9-0.4,1.4-0.9,1.4-1.6c0-0.6-0.3-1.3-0.9-2
		C62.2,13.8,61.6,13.4,61,13.4z"/>
	<path class="st0" d="M98.1,3.1c2.8,0,4.9,1.1,6.4,3.3s2.2,5,2.2,8.4s-0.8,6.5-2.5,9.3c-1.7,2.8-3.6,4.1-5.8,4.1
		c-1.5,0-2.7-0.9-3.4-2.6c-0.7-1.7-1.2-4.2-1.4-7.4c-1,1.4-2.2,3-3.5,4.8c-2.5,3.5-4.2,5.2-5.3,5.2c-0.4,0-0.8-0.3-1.3-0.9
		s-0.8-1.4-0.8-2.3c0-1,0.3-3.9,1-8.9c0.6-5,1-8.9,1-11.7c0-0.9,0.3-1.3,0.8-1.3s1.1,0.3,1.8,0.9c0.7,0.6,1.1,1.2,1.1,1.7
		c0,0.5-0.4,3-1.2,7.6c-0.8,4.6-1.3,8.1-1.5,10.7c1.5-2.5,3.1-4.8,4.9-6.8c1.8-2.1,3.2-3.2,4-3.2c0.8,0,1.4,1.8,1.7,5.4
		c0.1,1.3,0.3,2.6,0.7,3.7c0.4,1.1,0.8,1.7,1.4,1.7c1.3,0,2.5-1.1,3.5-3.2c1-2.2,1.5-4.6,1.5-7.2c0-2.9-0.6-5.2-1.9-6.8
		c-0.7-0.8-1.4-1.3-2.2-1.3c-0.8,0-1.5-0.3-2.1-0.8c-0.6-0.6-0.8-1-0.8-1.4C96.4,3.4,97,3.1,98.1,3.1z"/>
	<path class="st0" d="M113.3,5.5c0-0.5,0.2-0.9,0.6-1.4c0.4-0.4,0.8-0.6,1.2-0.6c0.4,0,0.9,0.5,1.4,1.5c0.6,1,0.8,1.8,0.8,2.4
		c0,0.2-0.1,0.5-0.3,0.6c-0.2,0.2-0.4,0.3-0.7,0.3c-0.6,0-1.2-0.3-1.9-1C113.7,6.5,113.3,5.9,113.3,5.5z M113.2,10.6
		c0.5,0,0.9,0.3,1.3,0.8c0.4,0.6,0.6,1.1,0.6,1.6s-0.3,2.1-1,4.8c-0.7,2.6-1.6,5.6-2.6,8.8c-0.4,1.2-0.9,1.8-1.5,1.8
		c-0.3,0-0.6-0.1-0.9-0.4c-0.2-0.3-0.4-0.6-0.4-0.9c0-0.4,0.1-0.9,0.3-1.7c0.2-0.8,0.5-1.8,0.8-3c0.4-1.3,0.6-2.3,0.8-3.1
		c0.2-0.8,0.4-1.7,0.6-2.7c0.2-1,0.4-1.8,0.5-2.4c0.1-0.6,0.3-1.2,0.5-1.9C112.5,11.2,112.8,10.6,113.2,10.6z"/>
	<path class="st0" d="M123.7,3.5c0,4.5-0.9,10.4-2.8,17.6c-1.2,4.9-2,7.3-2.5,7.3c-0.3,0-0.7-0.3-1.2-0.8c-0.4-0.5-0.6-0.9-0.6-1.2
		s0.3-1.8,1-4.5s1.4-6,2.1-9.9c0.7-3.9,1-7.5,1-10.6c0-0.3,0-0.6,0.1-0.7c0.1-0.1,0.3-0.2,0.6-0.2c0.3,0,0.8,0.3,1.3,1
		C123.4,2.2,123.7,2.9,123.7,3.5z"/>
	<path class="st0" d="M135,10.6c0.8,0,1.6,0.5,2.3,1.4c0.7,0.9,1.1,1.7,1.1,2.3c0,0.4-0.2,0.6-0.6,0.6c-0.3,0-0.7-0.2-1.2-0.6
		c-0.6-0.4-1.1-0.6-1.7-0.6s-1.5,0.3-2.7,1c-1.2,0.7-1.8,1.4-1.8,2.1c0,0.6,1.1,1.5,3.3,2.8c0.8,0.5,1.6,1.2,2.3,2.1
		c0.7,0.8,1,1.7,1,2.7c0,0.9-0.7,1.9-2,2.8c-1.3,0.9-2.8,1.3-4.6,1.3c-1.7,0-3.3-0.4-4.6-1.3c-1.3-0.8-2-1.6-2-2.4
		c0-0.3,0.1-0.6,0.2-0.7c0.2-0.2,0.4-0.3,0.6-0.3c0.2,0,0.6,0.2,1,0.5c1.3,0.9,2.6,1.4,4,1.4c1.4,0,2.4-0.2,3.1-0.5
		c0.6-0.3,0.9-0.8,0.9-1.3c0-0.6-0.3-1.1-1-1.7c-0.7-0.6-1.5-1.2-2.3-1.7c-0.8-0.5-1.6-1.1-2.3-1.8c-0.7-0.7-1-1.4-1-2.1
		c0-1.3,1-2.6,3-4C132,11.3,133.7,10.6,135,10.6z"/>
	<path class="st0" d="M150.2,16.7c0-0.8-0.1-1.6-0.4-2.3c-0.3-0.7-0.6-1.3-1.2-1.6c-1.7,0.5-3.1,1.7-4.3,3.9
		c-1.2,2.1-1.8,4.1-1.8,5.9c0,1.8,0.5,3,1.4,3.5c1.7-0.3,3.2-1.5,4.4-3.5C149.6,20.4,150.2,18.5,150.2,16.7z M140.7,17
		c0.8-1.9,1.9-3.4,3.3-4.6c1.4-1.2,2.8-1.8,4.2-1.8c1.4,0,2.6,0.6,3.6,1.8c1,1.2,1.4,2.7,1.4,4.4c0,1.7-0.4,3.5-1.3,5.3
		c-0.8,1.8-2,3.3-3.5,4.5c-1.5,1.2-3,1.8-4.7,1.8c-1.2,0-2.2-0.6-3.1-1.7c-0.8-1.1-1.2-2.6-1.2-4.3C139.5,20.7,139.9,18.9,140.7,17z
		"/>
	<path class="st0" d="M158.4,22.2c2.3-3.9,4.2-6.8,5.6-8.7c1.5-1.9,2.7-2.9,3.6-2.9c0.9,0,1.8,0.5,2.6,1.5c0.8,1,1.3,2,1.3,3.1
		c0,1.7-0.4,3.8-1.2,6.3c-1.4,4.6-2.7,6.9-3.9,6.9c-0.5,0-0.8-0.4-0.8-1.1c0-0.5,0.3-1.5,0.8-3.1c0.5-1.6,1-3.1,1.4-4.6
		c0.5-1.5,0.7-2.6,0.7-3.4c0-0.8-0.1-1.3-0.4-1.7c-0.2-0.4-0.4-0.5-0.7-0.5c-0.2,0-0.4,0.1-0.7,0.2c-0.2,0.1-0.5,0.4-0.8,0.7
		c-0.3,0.3-0.6,0.7-0.8,1c-0.3,0.3-0.6,0.8-1,1.4c-0.4,0.6-0.7,1.1-1,1.5c-0.3,0.4-0.6,1-1.2,1.8c-0.5,0.8-0.9,1.4-1.2,1.8
		c-0.3,0.4-0.6,1-1,1.7c-0.4,0.7-0.8,1.2-1,1.6c-0.2,0.4-0.5,0.8-0.8,1.3c-0.6,0.9-1.1,1.3-1.4,1.3c-0.3,0-0.7-0.3-1.2-0.8
		c-0.5-0.6-0.7-1-0.7-1.4c0-0.1,0.1-0.4,0.3-1c0.5-1.4,1-3.1,1.5-5.1c0.6-2.1,0.9-4.4,0.9-7c0.1-1.8,0.3-2.6,0.8-2.6
		c0.5,0,1.1,0.3,1.6,0.8s0.8,1.2,0.8,1.8c0,0.6-0.2,1.9-0.6,3.8C159.4,18.8,159,20.5,158.4,22.2z"/>
</g>
<path class="st0" d="M2.5,42.5l-0.1-0.2C2.1,41.9,2,41.6,2,41.4c0-0.3,0.2-0.6,0.5-0.9c0.4-0.3,0.7-0.4,1-0.4c0.1,0,0.3,0,0.5,0
	c0.2,0,0.3,0,0.4,0c2.1-0.3,3.6-0.5,4.4-0.5c1.6,0,2.9,0.4,3.8,1.1c0.9,0.8,1.4,1.7,1.4,2.8c0,1.1-0.5,2.1-1.4,3s-2.1,1.7-3.7,2.3
	c2.5,2.1,4.5,3.5,5.8,4.3c0.5,0.3,0.7,0.6,0.7,1.1c0,0.3-0.2,0.6-0.5,0.9c-0.3,0.3-0.6,0.4-0.9,0.4c-0.4,0-0.9-0.2-1.4-0.5
	c-0.5-0.4-1.3-0.9-2.2-1.7c-1-0.8-1.5-1.2-1.7-1.4c-1.4-1.1-2.3-1.9-2.9-2.3c-0.8,0-1.1-0.4-1.1-1.1c0-0.4,0.2-0.7,0.5-0.9
	c0.3-0.3,0.7-0.4,1.1-0.4c0.1,0,0.3,0,0.4,0.1c0.1,0,0.2,0.1,0.3,0.1c0.5,0,1.3-0.4,2.5-1.1c1.2-0.8,1.9-1.7,1.9-2.7
	c0-0.5-0.3-0.9-0.8-1.3c-0.5-0.4-1.2-0.5-2-0.5c-1,0-1.7,0.1-2.3,0.2c-0.6,0.1-0.9,0.2-1,0.2c-0.1,0-0.1,0.2-0.2,0.3
	s-0.2,0.9-0.5,2.2C4.4,46.1,4.2,47.5,4,49c-0.2,1.5-0.3,2.7-0.3,3.4c0,0.5,0,0.9,0.1,1.3c0.1,0.4,0.1,0.7,0.1,1
	c0,0.3-0.2,0.5-0.5,0.8c-0.3,0.3-0.6,0.4-1,0.4c-1,0-1.5-0.7-1.5-2.1c0-1.1,0.1-2.7,0.4-4.7s0.5-3.8,0.9-5.3c0-0.2,0.1-0.5,0.1-0.7
	L2.5,42.5z"/>
<path class="st0" d="M17.5,48.3L17.5,48.3c0.2-1.3,0.3-2,0.3-2.2c0-0.5,0.1-1,0.3-1.3c0.2-0.4,0.6-0.5,1-0.5c0.5,0,0.9,0.1,1.1,0.3
	c0.3,0.2,0.4,0.5,0.4,0.8s-0.1,0.9-0.4,1.8l-0.1,0.2c-0.4,1.4-0.6,2.5-0.7,3.4c-0.1,0.9-0.1,1.6-0.1,2.1c0,0.4,0.1,1,0.2,1.8
	c0,0.1,0,0.2,0,0.3c0,0.2-0.2,0.4-0.5,0.7s-0.6,0.4-1,0.4c-0.9,0-1.4-0.7-1.4-2.1c0-1.2,0.2-2.7,0.5-4.4
	C17.3,49,17.4,48.6,17.5,48.3z M22.6,39.4c0,0.5-0.2,1-0.7,1.3c-0.5,0.4-0.9,0.6-1.2,0.6c-0.4,0-0.8-0.2-1.1-0.5s-0.5-0.7-0.5-1.1
	c0-0.5,0.2-0.9,0.5-1.3c0.3-0.3,0.8-0.5,1.4-0.5c0.5,0,0.9,0.1,1.2,0.4C22.5,38.7,22.6,39.1,22.6,39.4z"/>
<path class="st0" d="M30.6,51.8c-1.9,2.6-3.7,3.9-5.6,3.9c-0.8,0-1.4-0.3-1.8-0.9c-0.5-0.6-0.7-1.4-0.7-2.3c0-1.9,0.8-3.7,2.3-5.6
	c1.5-1.8,3.1-2.8,4.6-2.8c0.9,0,1.5,0.2,1.9,0.7c0.5-2.3,0.9-3.8,1-4.4c0.2-1.1,0.4-1.8,0.5-2.2c0.1-0.4,0.4-0.6,0.7-0.8
	c0.3-0.2,0.5-0.3,0.8-0.3c0.4,0,0.6,0.2,0.8,0.5s0.3,0.7,0.3,1.1c0,0.2-0.2,0.8-0.5,1.7c-0.5,1.5-1,3.4-1.4,5.6s-0.7,3.9-0.7,5.2
	c0,1.2,0.3,1.9,0.8,1.9c0.3,0,0.6-0.1,0.9-0.2c0.3-0.1,0.5-0.2,0.7-0.2c0.4,0,0.5,0.2,0.5,0.6c0,0.5-0.4,1-1.1,1.5
	c-0.7,0.5-1.4,0.7-2,0.7c-0.7,0-1.2-0.4-1.6-1.1C30.6,53.8,30.5,52.9,30.6,51.8z M29.4,46.3c-0.9,0-1.9,0.7-2.9,2.1
	s-1.5,2.7-1.5,3.9c0,0.7,0.3,1,0.8,1c0.9,0,1.9-0.8,3.1-2.3c1.2-1.6,1.8-2.8,1.8-3.7c0-0.3-0.1-0.5-0.3-0.8
	C30.1,46.4,29.8,46.3,29.4,46.3z"/>
<path class="st0" d="M46.2,48.7c-0.1,0.1-0.6,1.2-1.6,3.4c-0.1,0.2-0.1,0.3-0.2,0.3c-1.2,2.5-2.2,3.7-2.8,3.7c-1,0-1.9-1.3-2.7-3.8
	c-0.8-2.6-1.2-4.7-1.2-6.4c0-0.6,0.1-1.1,0.4-1.5s0.7-0.6,1.2-0.6c0.3,0,0.6,0.1,0.9,0.4c0.3,0.3,0.4,0.6,0.4,0.8l-0.1,1.4
	c0,0.4,0,0.9,0,1.3c0,0.8,0.2,1.8,0.5,3c0.3,1.3,0.5,1.9,0.7,1.9c0.1,0,0.5-0.6,1.1-1.9c0.8-1.7,1.5-2.9,2-3.8h0
	c0.7-1.4,1.3-2.3,1.9-2.7c0.5,0,0.8,0.2,1.1,0.4c0.3,0.2,0.4,0.5,0.4,0.8c0,0.2,0,0.4,0,0.5c0,0.1,0,0.2,0,0.3
	c0,2.2,0.6,4.1,1.8,5.8c0.1,0.1,0.1,0,0.2-0.1c0.1-0.2,0.2-0.7,0.4-1.6c0.4-1.6,0.9-3.1,1.5-4.3c0.6-1.2,1-2,1.4-2.3
	c0.4-0.3,0.7-0.4,1.2-0.4c0.3,0,0.5,0.1,0.7,0.3c0.2,0.2,0.3,0.4,0.3,0.7c0,0.3-0.1,0.5-0.2,0.7c-0.9,1.2-1.7,2.9-2.5,5.1
	c-0.7,2.3-1.3,3.6-1.5,4.1c-0.3,0.5-0.5,0.8-0.7,0.8c-0.7,0-1.2-0.1-1.6-0.4c-0.4-0.2-0.8-0.7-1.2-1.4s-0.8-1.5-1.1-2.5
	S46.3,49.1,46.2,48.7z"/>
<path class="st0" d="M64.2,51.8c-1.9,2.5-3.7,3.7-5.5,3.7c-0.6,0-1.2-0.3-1.7-0.8c-0.5-0.5-0.7-1.2-0.7-1.9c0-1.9,0.8-3.9,2.5-6.1
	c1.7-2.1,3.4-3.2,5.1-3.2c0.9,0,1.4,0.4,1.7,1.3c0.8,0,1.2,0.3,1.2,0.9c0,0.3-0.1,0.8-0.2,1.6c-0.3,1.5-0.4,2.7-0.4,3.5
	c0,0.9,0.1,1.6,0.2,1.9c0.1,0.4,0.2,0.6,0.3,0.7c0.1,0.1,0.2,0.2,0.5,0.4c0.3,0.1,0.4,0.3,0.4,0.6c0,0.4-0.2,0.7-0.6,0.9
	c-0.4,0.2-0.8,0.4-1.2,0.4C64.7,55.9,64.1,54.5,64.2,51.8z M63.6,45.9c-0.7,0-1.7,0.8-2.8,2.4c-1.2,1.6-1.7,3-1.7,4.1
	c0,0.6,0.1,0.9,0.4,0.9c0.8,0,1.9-0.8,3.1-2.3c1.2-1.5,1.9-2.8,1.9-3.9c0-0.4-0.1-0.6-0.2-0.9C63.9,46,63.8,45.9,63.6,45.9z"/>
<path class="st0" d="M78.7,53.8c-0.3-0.6-0.6-1.8-0.8-3.6c-0.2-1.8-0.5-2.8-1.1-2.8c-0.5,0-1.4,1-2.7,2.9c-1.3,1.9-2,3.3-2.3,4.2
	c-0.1,0.3-0.2,0.5-0.4,0.7c-0.2,0.2-0.3,0.3-0.5,0.3c-1.1,0-1.6-0.5-1.6-1.5c0-0.3,0.1-1.1,0.3-2.3c0.3-1.5,0.4-3.4,0.4-5.7
	c0-0.3,0.1-0.7,0.4-1.1c0.3-0.4,0.6-0.6,0.9-0.6c0.4,0,0.7,0.1,1,0.3c0.2,0.2,0.3,0.8,0.3,1.7c0,0.7-0.2,2-0.6,4
	c1.6-3.6,3.3-5.5,5.2-5.5c1.7,0,2.6,1.3,2.9,3.9c0.3,2.7,0.6,4,1,4c0.2,0,0.4,0,0.6-0.1c0.3-0.1,0.5-0.1,0.6-0.1
	c0.3,0,0.5,0.2,0.5,0.6c0,0.4-0.2,0.8-0.7,1.2c-0.5,0.4-1.1,0.6-1.8,0.6C79.7,54.9,79.1,54.6,78.7,53.8L78.7,53.8z"/>
<path class="st0" d="M105.6,42.1l-3.3,0.2c-1.2,0.1-2.1,0.2-3,0.3c-0.8,0.1-1.3,0.2-1.3,0.3c-0.1,0.1-0.1,0.3-0.1,0.7
	c0,0.4-0.2,1-0.4,1.9c-0.2,0.7-0.3,1.3-0.3,1.7c0.5,0,1.1,0,2-0.1s1.5-0.2,1.8-0.3c1-0.3,1.8-0.4,2.4-0.4c1.1,0,1.7,0.3,1.7,1
	c0,0.5-0.2,0.8-0.5,1c-0.3,0.2-0.8,0.3-1.5,0.4c-0.4,0-0.9,0.1-1.4,0.2c-0.3,0-0.6,0.1-1,0.1c-2,0.2-3.2,0.4-3.5,0.5h0
	c-0.1,0-0.2,0.1-0.3,0.2c-0.1,0.1-0.2,0.7-0.3,1.6c-0.2,0.9-0.2,1.6-0.2,2c0,0.3,0.2,0.4,0.5,0.4c0.3,0,1.2-0.1,2.7-0.3
	c1.5-0.2,2.4-0.3,2.7-0.4c1-0.2,1.6-0.3,1.9-0.3c0.9,0.1,1.4,0.6,1.4,1.3c0,0.3-0.1,0.6-0.3,0.8c-0.7,0.3-1.7,0.5-3,0.6
	c-1,0.1-2.2,0.2-3.6,0.4c-1.2,0.3-2.4,0.4-3.5,0.4c-0.6,0-1-0.1-1.3-0.4c-0.3-0.2-0.4-0.6-0.5-1.2l0-0.4c0-0.1,0.1-0.3,0.2-0.7
	c0.3-0.9,0.6-2.8,1.1-5.9s0.6-4.7,0.6-5.1c0,0,0,0-0.1-0.1c0,0-0.1-0.2-0.3-0.4c-0.1-0.2-0.2-0.5-0.2-0.7c0-0.1,0-0.2,0-0.3
	c0-0.2,0.2-0.3,0.5-0.5s0.5-0.2,0.8-0.2c0.3,0,0.7,0,1,0.1c0.6,0,2.5-0.2,5.8-0.6c1.1-0.1,1.7-0.2,1.7-0.2l0.2,0
	c1.3-0.1,1.9,0.3,1.9,1.2c0,0.2-0.1,0.4-0.3,0.6C106,41.9,105.8,42,105.6,42.1z"/>
<path class="st0" d="M112,37.2c0.8,0,1.2,0.4,1.2,1.3c0,0.4-0.1,0.8-0.2,1.3c-0.1,0.4-0.4,1.6-0.9,3.3c-0.4,1.3-0.6,2.7-0.8,4.2
	c-0.2,1.5-0.3,2.7-0.3,3.6c0,0.9,0.1,2,0.2,3.2c0,0.3,0.1,0.5,0.1,0.6c0,0.4-0.2,0.8-0.5,1.1s-0.7,0.5-1,0.5c-0.5,0-0.9-0.2-1.1-0.7
	s-0.3-1.3-0.3-2.5c0-2.5,0.3-5.5,0.9-8.9c0.6-3.4,1.1-5.4,1.5-6C111.1,37.5,111.5,37.2,112,37.2z"/>
<path class="st0" d="M121.7,51.8c-1.9,2.5-3.7,3.7-5.5,3.7c-0.6,0-1.2-0.3-1.7-0.8s-0.7-1.2-0.7-1.9c0-1.9,0.8-3.9,2.5-6.1
	c1.7-2.1,3.4-3.2,5.1-3.2c0.9,0,1.4,0.4,1.7,1.3c0.8,0,1.2,0.3,1.2,0.9c0,0.3-0.1,0.8-0.2,1.6c-0.3,1.5-0.4,2.7-0.4,3.5
	c0,0.9,0.1,1.6,0.2,1.9c0.1,0.4,0.2,0.6,0.3,0.7s0.2,0.2,0.5,0.4c0.3,0.1,0.4,0.3,0.4,0.6c0,0.4-0.2,0.7-0.6,0.9
	c-0.4,0.2-0.8,0.4-1.2,0.4C122.2,55.9,121.5,54.5,121.7,51.8z M121,45.9c-0.7,0-1.7,0.8-2.8,2.4c-1.2,1.6-1.7,3-1.7,4.1
	c0,0.6,0.1,0.9,0.4,0.9c0.8,0,1.9-0.8,3.1-2.3c1.2-1.5,1.9-2.8,1.9-3.9c0-0.4-0.1-0.6-0.2-0.9C121.4,46,121.2,45.9,121,45.9z"/>
<path class="st0" d="M129.6,50.5c1.2-2.2,2.2-3.7,3.1-4.5c0.9-0.8,1.7-1.2,2.6-1.2c0.6,0,1.1,0.2,1.5,0.6c0.4,0.4,0.7,1.5,0.9,3.3
	c0.1,0.8,0.2,1.5,0.3,2s0.3,1,0.4,1.4c0.2,0.4,0.4,0.8,0.6,1.1c0.2,0.3,0.3,0.5,0.3,0.8s-0.1,0.5-0.4,0.7c-0.2,0.2-0.5,0.3-0.9,0.3
	c-0.6,0-1.2-0.3-1.7-1s-0.8-1.7-0.9-2.9c-0.1-1.5-0.2-2.5-0.4-2.9c-0.1-0.4-0.4-0.6-0.7-0.6c-0.4,0-1.2,0.8-2.4,2.5
	c-1.2,1.7-2.1,3-2.6,4c-0.3,0.8-0.6,1.2-0.8,1.5s-0.4,0.3-0.7,0.3c-0.4,0-0.8-0.1-1.1-0.3s-0.4-0.5-0.4-0.9c0-0.2,0.1-0.8,0.3-1.8
	c0.7-3.8,1.3-7.9,1.8-12.3c0.1-1,0.3-1.8,0.7-2.2c0.3-0.4,0.6-0.6,0.9-0.6c0.4,0,0.7,0.1,1,0.4s0.4,0.7,0.4,1.2
	c0,0.8-0.1,1.7-0.3,2.8s-0.6,2.7-1.1,5C130,48.5,129.8,49.6,129.6,50.5z"/>
<path class="st0" d="M150.5,51.7c0,0.7-0.6,1.6-1.9,2.7c-1.3,1-2.7,1.6-4.2,1.6c-1.2,0-2.2-0.4-2.9-1.1c-0.7-0.8-1-1.8-1-3.2
	c0-2,0.7-3.9,2.1-5.6s2.9-2.6,4.5-2.6c0.8,0,1.4,0.3,1.9,0.8s0.7,1.1,0.7,1.8c0,1.2-0.6,2.4-1.8,3.6c-1.2,1.1-2.7,1.9-4.6,2.3
	c-0.2,0-0.3,0.2-0.3,0.4c0,0.3,0.2,0.7,0.5,1c0.3,0.3,0.7,0.5,1.2,0.5c1.4,0,2.9-0.7,4.3-2.2c0.3-0.3,0.5-0.4,0.8-0.4
	C150.3,51,150.5,51.2,150.5,51.7z M143.3,49.8c1.1-0.2,2.1-0.7,3-1.5c0.9-0.7,1.3-1.4,1.3-2c0-0.2-0.1-0.4-0.2-0.6
	c-0.1-0.2-0.3-0.2-0.5-0.2c-0.6,0-1.3,0.5-2.1,1.4S143.6,48.8,143.3,49.8z"/>
<path class="st0" d="M161.9,51.7c0,0.7-0.6,1.6-1.9,2.7c-1.3,1-2.7,1.6-4.2,1.6c-1.2,0-2.2-0.4-2.9-1.1c-0.7-0.8-1-1.8-1-3.2
	c0-2,0.7-3.9,2.1-5.6s2.9-2.6,4.5-2.6c0.8,0,1.4,0.3,1.9,0.8s0.7,1.1,0.7,1.8c0,1.2-0.6,2.4-1.8,3.6c-1.2,1.1-2.7,1.9-4.6,2.3
	c-0.2,0-0.3,0.2-0.3,0.4c0,0.3,0.2,0.7,0.5,1c0.3,0.3,0.7,0.5,1.2,0.5c1.4,0,2.9-0.7,4.3-2.2c0.3-0.3,0.5-0.4,0.8-0.4
	C161.7,51,161.9,51.2,161.9,51.7z M154.7,49.8c1.1-0.2,2.1-0.7,3-1.5c0.9-0.7,1.3-1.4,1.3-2c0-0.2-0.1-0.4-0.2-0.6
	c-0.1-0.2-0.3-0.2-0.5-0.2c-0.6,0-1.3,0.5-2.1,1.4S155,48.8,154.7,49.8z"/>
</svg>
